<?xml version="1.0" standalone="no"?>
<!DOCTYPE svg PUBLIC "-//W3C//DTD SVG 20010904//EN"
 "http://www.w3.org/TR/2001/REC-SVG-20010904/DTD/svg10.dtd">
<svg version="1.0" xmlns="http://www.w3.org/2000/svg"
 width="217.000000pt" height="217.000000pt" viewBox="0 0 217.000000 217.000000"
 preserveAspectRatio="xMidYMid meet">
<metadata>
Created by potrace 1.14, written by Peter Selinger 2001-2017
</metadata>
<g transform="translate(0.000000,217.000000) scale(0.100000,-0.100000)"
fill="#000000" stroke="none">
<path d="M0 1085 l0 -1085 220 0 c189 0 220 2 220 15 0 8 5 15 10 15 6 0 10
-7 10 -15 0 -11 11 -15 40 -15 37 0 39 2 40 30 0 17 0 43 0 59 1 29 22 47 41
35 5 -3 9 2 9 10 0 12 5 14 26 6 30 -12 85 -13 82 -2 -4 16 14 52 28 52 8 0
14 5 14 10 0 6 9 10 20 10 11 0 20 4 20 9 0 6 15 7 34 4 33 -5 34 -4 41 36 4
25 12 41 21 41 8 0 14 4 14 9 0 14 -18 23 -24 12 -6 -9 -52 -8 -62 2 -3 3 -30
-4 -61 -15 -39 -13 -68 -17 -95 -13 l-38 7 22 18 c19 15 20 20 9 34 -7 9 -22
16 -33 16 -18 0 -19 2 -7 17 13 15 12 16 -9 10 -21 -5 -23 -3 -17 20 5 23 4
25 -17 18 -53 -16 -73 -12 -76 18 -2 15 -8 25 -13 22 -5 -4 -9 1 -9 10 0 8 -6
18 -14 21 -8 3 -13 16 -12 30 1 18 7 24 24 24 19 0 21 -4 16 -24 -4 -18 -1
-27 14 -35 30 -16 50 -13 56 7 4 11 22 22 44 28 32 8 37 12 34 36 -2 19 2 28
15 31 18 5 126 11 191 11 17 0 32 3 32 8 0 12 -47 21 -75 14 -15 -4 -55 2 -94
14 -52 15 -75 18 -95 10 -30 -11 -76 5 -76 27 0 17 59 53 76 46 9 -3 14 2 14
17 0 21 3 22 46 15 47 -7 74 5 74 32 0 10 -6 12 -19 8 -11 -3 -37 3 -59 14
-26 13 -59 20 -93 20 -32 0 -68 6 -87 16 -40 20 -48 15 -34 -22 6 -15 9 -41 7
-56 -2 -21 0 -27 11 -23 17 7 18 -8 2 -33 -9 -15 -9 -26 -1 -44 10 -20 9 -28
-2 -37 -8 -7 -20 -10 -27 -7 -8 4 -7 6 5 6 18 1 24 21 6 21 -6 0 -8 7 -5 16 4
12 2 15 -9 10 -9 -3 -15 0 -15 9 0 8 6 15 13 15 8 0 7 4 -3 10 -12 8 -13 11
-1 19 11 7 11 9 0 13 -10 3 -14 25 -14 76 0 73 4 80 47 73 4 0 12 8 18 19 13
24 8 25 -28 6 -49 -25 -93 10 -91 71 0 27 1 27 9 6 5 -13 15 -23 22 -23 20 0
61 24 61 35 0 6 11 18 25 29 13 10 19 22 14 25 -13 8 -3 71 12 71 6 0 22 -7
35 -16 23 -16 25 -16 43 7 52 65 54 70 32 86 -10 7 -29 16 -41 19 -12 3 -25
15 -28 25 -4 10 -12 19 -20 19 -8 0 -16 9 -20 19 -5 16 -14 19 -53 18 -46 -2
-47 -2 -50 32 -2 18 6 55 17 82 12 26 21 60 21 74 0 39 28 91 74 139 42 43
117 96 137 96 18 0 46 33 31 38 -6 2 -12 9 -12 15 0 8 4 7 12 -1 7 -7 21 -12
32 -12 21 1 21 1 0 13 -12 7 -19 18 -17 25 3 6 0 12 -6 12 -6 0 -11 5 -11 11
0 5 5 7 12 3 8 -5 9 0 5 15 -3 15 -1 21 6 18 7 -2 24 3 39 11 25 15 26 18 12
33 -33 36 46 70 171 73 22 1 46 5 52 9 16 10 176 -17 225 -37 20 -9 38 -20 40
-26 2 -6 40 -11 88 -13 47 -1 88 -6 92 -12 5 -6 8 -5 8 3 0 17 36 15 66 -4 18
-12 23 -22 18 -37 -5 -16 -3 -19 10 -14 12 5 16 1 16 -14 0 -16 5 -20 20 -16
11 3 20 1 20 -5 0 -5 -9 -12 -19 -15 -12 -3 -17 -11 -14 -20 3 -8 11 -12 19
-9 8 3 11 -2 9 -15 -2 -11 0 -17 6 -14 5 4 9 1 9 -4 0 -6 14 -11 30 -11 19 0
30 -5 30 -14 0 -17 -33 -31 -38 -17 -2 6 -11 11 -20 11 -12 0 -13 -3 -4 -12 7
-7 12 -22 12 -34 0 -12 4 -24 10 -26 14 -4 0 -48 -15 -48 -18 0 -28 -32 -14
-41 7 -4 9 -14 6 -22 -4 -10 2 -17 16 -21 21 -6 19 -8 -20 -44 -24 -22 -43
-46 -43 -55 0 -10 -4 -17 -10 -17 -5 0 -10 -7 -10 -15 0 -8 -3 -14 -7 -14 -5
1 -16 1 -27 0 -15 -1 -16 -4 -6 -16 21 -26 3 -29 -35 -6 -20 11 -43 21 -51 21
-8 0 -14 7 -14 15 0 8 -4 15 -10 15 -5 0 -10 -7 -10 -15 0 -9 -9 -15 -25 -15
-30 0 -35 -29 -5 -37 11 -3 17 -9 14 -14 -3 -5 2 -9 11 -9 19 0 45 -23 45 -40
0 -6 8 -10 17 -8 11 2 22 -6 28 -19 5 -12 16 -24 25 -26 10 -3 6 -8 -12 -15
-16 -6 -28 -17 -28 -23 0 -8 -4 -8 -15 1 -8 7 -15 9 -15 4 0 -4 -6 1 -14 12
-14 18 -15 18 -33 1 -17 -17 -17 -18 2 -11 l20 7 -20 -24 c-11 -13 -24 -27
-28 -30 -11 -8 2 -97 15 -105 5 -3 1 -12 -8 -18 -21 -16 -10 -38 14 -29 11 5
7 -3 -10 -20 -34 -34 -75 -36 -87 -4 l-9 22 -6 -25 c-10 -43 -4 -70 17 -70 15
0 17 -4 11 -18 -10 -23 -7 -79 6 -103 7 -12 20 -19 38 -18 23 2 24 2 5 6 -32
6 -30 39 3 47 31 8 45 -1 24 -14 -9 -6 -10 -10 -3 -10 8 0 9 -9 2 -32 -5 -18
-9 -34 -9 -35 0 -2 16 -21 36 -43 28 -31 32 -40 19 -40 -12 0 -15 -5 -11 -16
4 -11 -1 -18 -14 -21 -31 -8 -24 -26 8 -19 l27 7 -29 -20 c-25 -17 -26 -20
-10 -24 17 -4 17 -5 2 -6 -10 0 -18 -5 -18 -11 0 -12 35 -31 44 -23 12 12 6
-13 -6 -26 -10 -11 -10 -13 0 -7 6 4 12 2 12 -4 0 -6 -10 -15 -22 -20 -18 -7
-19 -9 -5 -9 20 -1 23 -17 5 -24 -9 -3 -7 -7 5 -12 12 -5 24 0 37 15 32 37 41
17 35 -76 -4 -69 -2 -86 10 -90 8 -4 15 -16 15 -28 0 -15 -3 -17 -9 -8 -8 13
-28 -72 -38 -165 -4 -34 -2 -43 10 -43 8 0 18 11 21 25 4 14 11 23 15 20 5 -3
4 11 -2 30 -8 26 -7 39 1 47 8 8 16 0 29 -31 10 -22 21 -41 25 -41 5 0 8 -7 8
-15 0 -19 17 -19 36 -1 9 9 10 17 4 21 -5 3 -10 1 -10 -4 0 -6 -5 -11 -10 -11
-7 0 -7 6 0 20 6 11 8 32 5 47 -3 16 -3 23 1 16 3 -8 15 -2 35 18 34 35 37 49
9 49 -11 0 -20 6 -21 13 0 6 -5 1 -11 -13 -6 -14 -10 -28 -10 -32 4 -18 -26
-6 -31 12 -3 11 -1 20 5 20 5 0 7 4 4 9 -3 4 -17 6 -32 3 -24 -4 -26 -3 -19
19 4 13 12 27 17 30 13 8 6 65 -7 62 -6 -1 -11 7 -11 17 0 19 1 19 22 -1 17
-16 21 -29 17 -53 -5 -32 -4 -33 25 -28 24 3 31 0 37 -17 3 -12 12 -21 20 -21
15 0 29 -27 26 -52 -1 -12 4 -15 21 -11 l23 5 -22 -20 c-26 -23 -34 -63 -8
-42 22 18 18 -3 -5 -28 -24 -26 -26 -48 -4 -56 9 -3 135 -6 280 -6 l264 0 0
1085 0 1085 -1085 0 -1085 0 0 -1085z m501 115 c32 -18 22 -30 -24 -30 -50 0
-62 7 -46 27 14 16 43 17 70 3z m929 -386 c-17 -15 -33 -24 -36 -22 -9 9 8 37
24 41 39 10 42 6 12 -19z m57 -536 c-3 -8 -6 -5 -6 6 -1 11 2 17 5 13 3 -3 4
-12 1 -19z m-17 -131 c0 -5 -4 -5 -10 -2 -5 3 -10 14 -10 23 0 15 2 15 10 2 5
-8 10 -19 10 -23z"/>
<path d="M755 1940 c3 -5 13 -10 21 -10 8 0 12 5 9 10 -3 6 -13 10 -21 10 -8
0 -12 -4 -9 -10z"/>
<path d="M777 1333 c-5 -4 -25 -8 -45 -8 -49 0 -52 -22 -7 -67 29 -31 34 -42
29 -67 -6 -27 -4 -31 15 -31 14 0 21 -6 21 -20 0 -15 7 -20 26 -20 14 0 23 -4
19 -10 -3 -5 -1 -10 4 -10 6 0 11 4 11 8 0 4 10 8 21 9 12 1 30 9 40 19 11 10
25 14 36 10 30 -12 103 -24 103 -17 0 20 -174 91 -222 91 l-30 0 32 26 c22 19
47 28 88 33 l57 6 -58 23 c-70 26 -129 37 -140 25z"/>
<path d="M1373 1235 c2 -5 10 -10 17 -10 7 0 15 5 17 10 2 6 -6 11 -17 11 -11
0 -19 -5 -17 -11z"/>
<path d="M790 816 c0 -2 8 -10 18 -17 15 -13 16 -12 3 4 -13 16 -21 21 -21 13z"/>
<path d="M1300 569 c0 -5 5 -7 10 -4 6 3 10 8 10 11 0 2 -4 4 -10 4 -5 0 -10
-5 -10 -11z"/>
<path d="M788 143 c7 -3 16 -2 19 1 4 3 -2 6 -13 5 -11 0 -14 -3 -6 -6z"/>
<path d="M1578 3 c7 -3 16 -2 19 1 4 3 -2 6 -13 5 -11 0 -14 -3 -6 -6z"/>
</g>
</svg>
